<?xml version="1.0" standalone="no"?>
<!DOCTYPE svg PUBLIC "-//W3C//DTD SVG 1.1//EN" "http://www.w3.org/Graphics/SVG/1.1/DTD/svg11.dtd" >
<svg xmlns="http://www.w3.org/2000/svg" xmlns:xlink="http://www.w3.org/1999/xlink" version="1.1">
<metadata></metadata>
<defs>
<font id="mokimono" horiz-adv-x="2019" >
<font-face units-per-em="2048" ascent="1638" descent="-410" />
<missing-glyph horiz-adv-x="500" />
<glyph horiz-adv-x="0" />
<glyph horiz-adv-x="682" />
<glyph unicode=" " />
<glyph unicode="!" d="M375 252q0 117 82.5 200t199.5 83t200 -83t83 -200t-83 -200t-200 -83t-199.5 83t-82.5 200zM406 655v881h503v-881h-503z" />
<glyph unicode="&#x22;" d="M633 1063v473h338v-473h-338zM1049 1063v473h337v-473h-337z" />
<glyph unicode="#" d="M229 164v446h164v316h-164v446h164v164h504v-164h225v164h504v-164h164v-446h-164v-316h164v-446h-164v-164h-504v164h-225v-164h-504v164h-164zM897 610h225v316h-225v-316z" />
<glyph unicode="$" d="M180 1051q0 260 148.5 372.5t445.5 112.5v186h469v-186h545v-446h-1020q-86 0 -86 -62q0 -57 86 -57h481q293 0 440.5 -113t147.5 -373t-148.5 -372.5t-445.5 -112.5v-186h-469v186h-545v446h1020q86 0 86 62q0 57 -86 57h-481q-293 0 -440.5 113t-147.5 373z" />
<glyph unicode="%" d="M41 940v213q0 205 116 294t345 89h137q334 0 426 -188l88 188h436l-264 -563q24 6 53 6h138q230 0 346 -89t116 -294v-213q0 -205 -116 -294t-346 -89h-138q-164 0 -269 44t-153 142l-88 -186h-436l264 565q-24 -8 -57 -8h-137q-229 0 -345 89t-116 294zM426 963 q0 -78 111 -78h129q110 0 110 78v167q0 78 -110 78h-129q-111 0 -111 -78v-167zM1241 406q0 -78 111 -78h129q110 0 110 78v167q0 78 -110 78h-129q-111 0 -111 -78v-167z" />
<glyph unicode="&#x26;" d="M221 440q0 263 236 353q-174 89 -174 303q0 212 162.5 326t461.5 114h137v-446h-137q-90 0 -90 -62q0 -57 90 -57h289v565h504v-565h137v-406h-137v-125q0 -236 -149.5 -338t-444.5 -102h-260q-304 0 -464.5 109t-160.5 331zM756 508q0 -62 90 -62h260q90 0 90 62v57 h-350q-90 0 -90 -57z" />
<glyph unicode="'" d="M342 1063v473h338v-473h-338z" />
<glyph unicode="(" d="M870 104v1328q0 278 157.5 399t469.5 121h174v-416h-174q-158 0 -158 -104v-1328q0 -104 158 -104h174v-416h-174q-312 0 -469.5 121t-157.5 399z" />
<glyph unicode=")" d="M348 0h174q158 0 158 104v1328q0 104 -158 104h-174v416h174q312 0 469.5 -121t157.5 -399v-1328q0 -278 -157.5 -399t-469.5 -121h-174v416z" />
<glyph unicode="*" d="M225 1110l78 238l107 -35q110 -38 161 -62q-6 71 -6 174v111h250v-111q0 -113 -8 -176q59 27 164 64l106 35l78 -238l-106 -35q-107 -36 -168 -47q37 -42 108 -137l64 -88l-201 -148l-66 90q-62 83 -96 144q-51 -84 -96 -144l-66 -90l-200 148l63 88q76 102 109 137 q-65 11 -168 47z" />
<glyph unicode="+" d="M453 565v406h305v299h504v-299h305v-406h-305v-299h-504v299h-305z" />
<glyph unicode="," d="M369 -291v707h536l-254 -707h-282z" />
<glyph unicode="-" d="M498 565v406h1024v-406h-1024z" />
<glyph unicode="." d="M317 252q0 117 83 200t200 83t200 -83t83 -200t-83 -200t-200 -83t-200 83t-83 200z" />
<glyph unicode="/" d="M401 0l721 1536h498l-721 -1536h-498z" />
<glyph unicode="0" d="M68 600v336q0 164 47.5 280t142 186t225.5 102t308 32h438q177 0 308 -32t225.5 -102t142 -186t47.5 -280v-336q0 -164 -47.5 -280t-142 -186t-225.5 -102t-308 -32h-438q-177 0 -308 32t-225.5 102t-142 186t-47.5 280zM571 600q0 -21 2 -31l439 521h-221 q-220 0 -220 -154v-336zM1006 446h223q219 0 219 154v336q0 19 -2 29z" />
<glyph unicode="1" d="M225 0v446h553v644h-553v446h1057v-1090h553v-446h-1610z" />
<glyph unicode="2" d="M199 0v485q0 260 147 373t440 113h482q86 0 86 57q0 62 -86 62h-1020v446h1020q293 0 440 -112.5t147 -372.5t-147 -373t-440 -113h-482q-86 0 -86 -57v-62h1106v-446h-1607z" />
<glyph unicode="3" d="M219 0v446h1032q90 0 90 62q0 57 -90 57h-1032v406h971q90 0 90 57q0 62 -90 62h-971v446h971q299 0 462 -114t163 -326t-177 -303q238 -91 238 -353q0 -222 -160.5 -331t-464.5 -109h-1032z" />
<glyph unicode="4" d="M168 201v385l809 950h733v-889h180v-446h-180v-201h-504v201h-1038zM819 647h387v453z" />
<glyph unicode="5" d="M231 0v446h1020q86 0 86 62q0 57 -86 57h-1020v971h1559v-446h-1106v-119h567q293 0 440.5 -113t147.5 -373t-147.5 -372.5t-440.5 -112.5h-1020z" />
<glyph unicode="6" d="M195 485v566q0 260 147 372.5t440 112.5h1020v-446h-1020q-84 0 -84 -62v-199q95 142 420 142h146q293 0 440 -113t147 -373t-147 -372.5t-440 -112.5h-482q-293 0 -440 112.5t-147 372.5zM698 508q0 -62 84 -62h482q86 0 86 62q0 57 -86 57h-480q-86 0 -86 -57z" />
<glyph unicode="7" d="M236 1090v446h1581v-385l-979 -1151h-600l925 1090h-927z" />
<glyph unicode="8" d="M158 440q0 263 235 353q-174 89 -174 303q0 212 163 326t462 114h332q299 0 461.5 -114t162.5 -326q0 -213 -176 -303q238 -91 238 -353q0 -222 -160.5 -331t-464.5 -109h-455q-303 0 -463.5 109t-160.5 331zM692 508q0 -62 90 -62h455q90 0 90 62q0 50 -74 57h-471 q-90 0 -90 -57zM754 1028q0 -57 90 -57h332q90 0 90 57q0 62 -90 62h-332q-90 0 -90 -62z" />
<glyph unicode="9" d="M168 1051q0 260 147.5 372.5t440.5 112.5h481q293 0 440.5 -112.5t147.5 -372.5v-566q0 -260 -147.5 -372.5t-440.5 -112.5h-1020v446h1020q84 0 84 62v199q-95 -142 -420 -142h-145q-293 0 -440.5 113t-147.5 373zM670 1028q0 -57 86 -57h479q86 0 86 57q0 62 -84 62 h-481q-86 0 -86 -62z" />
<glyph unicode=":" d="M369 252q0 117 82.5 200t199.5 83t200 -83t83 -200t-83 -200t-200 -83t-199.5 83t-82.5 200zM369 961q0 117 82.5 199.5t199.5 82.5t200 -82.5t83 -199.5t-83 -200t-200 -83t-199.5 83t-82.5 200z" />
<glyph unicode=";" d="M369 961q0 117 82.5 199.5t199.5 82.5t200 -82.5t83 -199.5t-83 -200t-200 -83t-199.5 83t-82.5 200zM397 -291v707h537l-254 -707h-283z" />
<glyph unicode="&#x3c;" d="M512 567v400l950 446v-498l-315 -149l315 -148v-497z" />
<glyph unicode="=" d="M453 303v406h1114v-406h-1114zM453 827v406h1114v-406h-1114z" />
<glyph unicode="&#x3e;" d="M557 121v497l317 150l-317 150v497l950 -446v-402z" />
<glyph unicode="?" d="M215 1090v446h535q311 0 467.5 -102t156.5 -338t-157 -338.5t-467 -102.5h-123v316h123q90 0 90 57q0 62 -90 62h-535zM469 252q0 117 83 200t200 83t199.5 -83t82.5 -200t-82.5 -200t-199.5 -83t-200 83t-83 200z" />
<glyph unicode="@" d="M143 416v213q0 223 124 320.5t374 97.5h203q249 0 374 -97.5t125 -320.5v-213q0 -51 46 -51q47 0 47 51v600q0 104 -158 104h-1135v416h1135q312 0 469.5 -121t157.5 -399v-496q0 -275 -121.5 -397.5t-347.5 -122.5q-118 0 -192 32.5t-107 106.5q-72 -139 -291 -139h-207 q-249 0 -372.5 96.5t-123.5 319.5zM612 453q0 -34 45 -37h162q55 0 55 37v139q0 37 -55 37h-151q-53 0 -56 -31v-145z" />
<glyph unicode="A" d="M2 0l721 1536h573l721 -1536h-528l-94 201h-770l-95 -201h-528zM815 606h389l-194 414z" />
<glyph unicode="B" d="M223 0v1536h1028q299 0 462 -114t163 -326q0 -213 -176 -303q237 -91 237 -353q0 -222 -160.5 -331t-463.5 -109h-1090zM727 446h586q90 0 90 62q0 57 -90 57h-586v-119zM727 971h524q90 0 90 57q0 62 -90 62h-524v-119z" />
<glyph unicode="C" d="M166 600v336q0 164 47.5 280t142 186t225.5 102t308 32h954v-446h-954q-219 0 -219 -154v-336q0 -154 219 -154h954v-446h-954q-177 0 -308 32t-225.5 102t-142 186t-47.5 280z" />
<glyph unicode="D" d="M111 0v1536h1095q177 0 308 -32t225.5 -102t142 -186t47.5 -280v-336q0 -164 -47.5 -280t-142 -186t-225.5 -102t-308 -32h-1095zM614 446h592q219 0 219 154v336q0 154 -219 154h-592v-644z" />
<glyph unicode="E" d="M186 0v1536h1643v-446h-1139v-119h1139v-406h-1139v-119h1139v-446h-1643z" />
<glyph unicode="F" d="M209 0v1536h1642v-446h-1138v-119h1138v-447h-1138v-524h-504z" />
<glyph unicode="G" d="M111 600v336q0 164 47.5 280t142 186t225.5 102t308 32h1069v-446h-1069q-220 0 -220 -154v-336q0 -154 220 -154h565v322h504v-768h-1069q-177 0 -308 32t-225.5 102t-142 186t-47.5 280z" />
<glyph unicode="H" d="M158 0v1536h504v-545h696v545h504v-1536h-504v545h-696v-545h-504z" />
<glyph unicode="I" d="M334 0v446h424v644h-424v446h1352v-446h-424v-644h424v-446h-1352z" />
<glyph unicode="J" d="M164 600v119h504v-119q0 -154 219 -154h209q219 0 219 154v490h-969v446h1473v-936q0 -164 -47.5 -280t-142 -186t-225.5 -102t-308 -32h-209q-177 0 -308 32t-225.5 102t-142 186t-47.5 280z" />
<glyph unicode="K" d="M158 0v1536h504v-698l593 698h600l-614 -721l692 -815h-600l-671 788v-788h-504z" />
<glyph unicode="L" d="M352 0v1536h504v-1090h1034v-446h-1538z" />
<glyph unicode="M" d="M102 0v1536h504l404 -475l403 475h504v-1536h-504v829l-403 -475l-404 475v-829h-504z" />
<glyph unicode="N" d="M154 0v1536h503l705 -829v829h504v-1536h-504l-705 829v-829h-503z" />
<glyph unicode="O" d="M68 600v336q0 164 47.5 280t142 186t225.5 102t308 32h438q177 0 308 -32t225.5 -102t142 -186t47.5 -280v-336q0 -164 -47.5 -280t-142 -186t-225.5 -102t-308 -32h-438q-177 0 -308 32t-225.5 102t-142 186t-47.5 280zM571 600q0 -154 220 -154h438q219 0 219 154v336 q0 154 -219 154h-438q-220 0 -220 -154v-336z" />
<glyph unicode="P" d="M117 0v1536h1083q177 0 308 -32t225.5 -102t142 -186t47.5 -280v-102q0 -164 -47.5 -280t-142 -186.5t-225.5 -102.5t-308 -32h-579v-233h-504zM621 680h579q219 0 219 154v102q0 154 -219 154h-579v-410z" />
<glyph unicode="Q" d="M68 600v336q0 164 47.5 280t142 186t225.5 102t308 32h438q177 0 308 -32t225.5 -102t142 -186t47.5 -280v-336q0 -160 -45.5 -275t-135.5 -185.5t-215 -104t-294 -35.5v-246h-504v246q-169 2 -294 35.5t-215 104t-135.5 185.5t-45.5 275zM571 600q0 -154 220 -154h438 q219 0 219 154v336q0 154 -219 154h-438q-220 0 -220 -154v-336z" />
<glyph unicode="R" d="M141 0v1536h1028q177 0 308 -32t225.5 -102t142 -186t47.5 -280q0 -406 -305 -533l342 -403h-600l-285 336h-399v-336h-504zM645 782h524q220 0 220 154t-220 154h-524v-308z" />
<glyph unicode="S" d="M180 1051q0 260 147.5 372.5t440.5 112.5h1020v-446h-1020q-86 0 -86 -62q0 -57 86 -57h481q293 0 440.5 -113t147.5 -373t-147.5 -372.5t-440.5 -112.5h-1020v446h1020q86 0 86 62q0 57 -86 57h-481q-293 0 -440.5 113t-147.5 373z" />
<glyph unicode="T" d="M102 1090v446h1815v-446h-655v-1090h-504v1090h-656z" />
<glyph unicode="U" d="M121 600v936h504v-936q0 -154 219 -154h332q219 0 219 154v936h503v-936q0 -164 -47 -280t-141.5 -186t-225.5 -102t-308 -32h-332q-177 0 -308 32t-225.5 102t-142 186t-47.5 280z" />
<glyph unicode="V" d="M2 1536h528l480 -1022l479 1022h528l-721 -1536h-573z" />
<glyph unicode="W" d="M102 467v1069h504v-1069q0 -66 94 -66q93 0 93 66v303h434v-303q0 -66 92 -66q94 0 94 66v1069h504v-1069q0 -250 -127.5 -358.5t-380.5 -108.5q-278 0 -399 127q-121 -127 -400 -127q-253 0 -380.5 108.5t-127.5 358.5z" />
<glyph unicode="X" d="M20 0l652 768l-652 768h601l389 -459l389 459h600l-651 -768l651 -768h-600l-389 459l-389 -459h-601z" />
<glyph unicode="Y" d="M31 1536h600l379 -446l379 446h600l-727 -856v-680h-504v680z" />
<glyph unicode="Z" d="M188 0v385l854 705h-854v446h1643v-385l-856 -705h856v-446h-1643z" />
<glyph unicode="[" d="M870 -416v2368h801v-416h-332v-1536h332v-416h-801z" />
<glyph unicode="\" d="M399 1536h498l721 -1536h-498z" />
<glyph unicode="]" d="M348 0h332v1536h-332v416h801v-2368h-801v416z" />
<glyph unicode="^" d="M236 915l290 621h607l290 -621h-497l-97 205l-96 -205h-497z" />
<glyph unicode="_" d="M225 0v416h1569v-416h-1569z" />
<glyph unicode="`" horiz-adv-x="444" d="M0 1720h444v-295h-338z" />
<glyph unicode="a" d="M225 420q0 226 128 324t382 98h203q287 0 418 -92v61q0 104 -158 104h-874v416h874q312 0 469.5 -121t157.5 -399v-811h-469v135q-149 -135 -494 -135h-127q-254 0 -382 98t-128 322zM680 453q0 -37 55 -37h565q56 0 56 37q0 36 -56 36h-565q-55 0 -55 -36z" />
<glyph unicode="b" d="M215 0v1536h469v-336q125 131 406 131h131q312 0 469 -121t157 -399v-291q0 -278 -157 -399t-469 -121h-131q-281 0 -406 131v-131h-469zM684 520q0 -104 129 -104h408q157 0 157 104v291q0 104 -157 104h-408q-60 0 -94.5 -26.5t-34.5 -77.5v-291z" />
<glyph unicode="c" d="M317 520v291q0 278 157.5 399t469.5 121h758v-416h-758q-158 0 -158 -104v-291q0 -104 158 -104h758v-416h-758q-312 0 -469.5 121t-157.5 399z" />
<glyph unicode="d" d="M172 520v291q0 278 157.5 399t469.5 121h131q277 0 405 -131v336h469v-1536h-469v131q-128 -131 -405 -131h-131q-312 0 -469.5 121t-157.5 399zM641 520q0 -104 158 -104h407q129 0 129 104v291q0 51 -34.5 77.5t-94.5 26.5h-407q-158 0 -158 -104v-291z" />
<glyph unicode="e" d="M225 520v291q0 278 157.5 399t469.5 121h463q254 0 382 -98t128 -322q0 -226 -128 -324t-382 -98h-203q-285 0 -418 91v-60q0 -104 158 -104h924v-416h-924q-312 0 -469.5 121t-157.5 399zM694 879q0 -37 56 -37h565q55 0 55 37q0 36 -55 36h-565q-56 0 -56 -36z" />
<glyph unicode="f" d="M360 0v1016q0 278 157.5 399t469.5 121h86q312 0 469.5 -121t157.5 -399v-101h-469v101q0 104 -158 104h-86q-158 0 -158 -104v-248h871v-416h-871v-352h-469z" />
<glyph unicode="g" d="M172 672v139q0 278 157.5 399t469.5 121h131q277 0 405 -131v131h469v-1227q0 -278 -157 -399t-469 -121h-908v416h908q157 0 157 104v179q-128 -131 -405 -131h-131q-312 0 -469.5 121t-157.5 399zM641 672q0 -105 158 -105h407q129 0 129 105v139q0 51 -34.5 77.5 t-94.5 26.5h-407q-158 0 -158 -104v-139z" />
<glyph unicode="h" d="M215 0v1536h469v-346q131 151 453 151h51q312 0 469.5 -121t157.5 -399v-821h-469v821q0 105 -158 105h-375q-129 0 -129 -105v-821h-469z" />
<glyph unicode="i" d="M399 0v416h377v499h-377v416h1221v-416h-375v-499h375v-416h-1221zM743 1690q0 110 78.5 189t188.5 79t189 -79t79 -189t-79 -188.5t-189 -78.5t-188.5 78.5t-78.5 188.5z" />
<glyph unicode="j" d="M266 520v78h469v-78q0 -104 158 -104h174q158 0 158 104v395h-752v416h1221v-811q0 -278 -157.5 -399t-469.5 -121h-174q-312 0 -469.5 121t-157.5 399zM817 1690q0 110 78 189t188 79t189.5 -79t79.5 -189t-79.5 -188.5t-189.5 -78.5t-188 78.5t-78 188.5z" />
<glyph unicode="k" d="M266 0v1536h469v-836l537 631h561l-551 -645l582 -686h-561l-568 668v-668h-469z" />
<glyph unicode="l" d="M389 0v416h414v600q0 104 -158 104h-256v416h256q312 0 469.5 -121t157.5 -399v-600h411v-416h-1294z" />
<glyph unicode="m" d="M92 0v811q0 294 130.5 422.5t387.5 128.5q274 0 398 -139q125 139 401 139q257 0 387.5 -128.5t130.5 -422.5v-811h-469v811q0 104 -123 104t-123 -104v-811h-405v811q0 104 -123 104t-123 -104v-811h-469z" />
<glyph unicode="n" d="M215 0v1331h469v-141l6 8q10 7 15 14q50 46 108 72l21 8q81 34 186 43q36 4 55 4q20 2 62 2h51h29q10 0 29 -1t28 -1l55 -4q38 -5 51 -8q149 -20 254 -90l33 -25q32 -29 53 -59l13 -16q25 -36 39 -74q10 -20 16 -41q12 -48 16 -70q0 -4 1 -12t1 -12q9 -74 9 -107v-821 h-469v821q0 32 -17 56q-25 40 -106 47q-12 2 -35 2h-375q-31 0 -55 -6l-8 -5q-2 0 -5.5 -1t-5.5 -1l-12 -6l-10 -8q-14 -11 -19 -20l-6 -13q-6 -9 -6 -20q0 -1 -1 -3t-1 -3v-9v-10v-821h-469z" />
<glyph unicode="o" d="M193 520v291q0 278 157 399t469 121h381q312 0 469.5 -121t157.5 -399v-291q0 -278 -157.5 -399t-469.5 -121h-381q-312 0 -469 121t-157 399zM662 520q0 -104 157 -104h381q158 0 158 104v291q0 104 -158 104h-381q-157 0 -157 -104v-291z" />
<glyph unicode="p" d="M215 -416v1747h469v-131q125 131 406 131h131q312 0 469 -121t157 -399v-291q0 -278 -157 -399t-469 -121h-131q-283 0 -406 129v-545h-469zM684 520q0 -104 129 -104h408q157 0 157 104v291q0 104 -157 104h-408q-129 0 -129 -104v-291z" />
<glyph unicode="q" d="M172 520v291q0 278 157.5 399t469.5 121h131q277 0 405 -131v131h469v-1747h-469v545q-126 -129 -405 -129h-131q-312 0 -469.5 121t-157.5 399zM641 520q0 -104 158 -104h407q129 0 129 104v291q0 51 -34.5 77.5t-94.5 26.5h-407q-158 0 -158 -104v-291z" />
<glyph unicode="r" d="M432 0v1331h469v-153q121 153 420 153h346v-416h-637q-129 0 -129 -104v-811h-469z" />
<glyph unicode="s" d="M291 911q0 224 128 322t382 98h885v-416h-885q-56 0 -56 -36q0 -37 56 -37h418q254 0 382 -98t128 -324q0 -224 -128 -322t-382 -98h-885v416h885q55 0 55 37q0 36 -55 36h-418q-254 0 -382 98t-128 324z" />
<glyph unicode="t" d="M348 520v1016h469v-205h873v-416h-873v-395q0 -104 158 -104h86q158 0 158 104v248h471v-248q0 -142 -41.5 -242.5t-124 -161.5t-196 -88.5t-267.5 -27.5h-86q-312 0 -469.5 121t-157.5 399z" />
<glyph unicode="u" d="M205 510v821h469v-821q0 -104 157 -104h375q60 0 94.5 26.5t34.5 77.5v821h469v-1331h-469v139q-132 -149 -452 -149h-52q-312 0 -469 121t-157 399z" />
<glyph unicode="v" d="M117 1331h497l396 -844l395 844h498l-625 -1331h-537z" />
<glyph unicode="w" d="M92 535v811h469v-811q0 -105 123 -105t123 105v811h405v-811q0 -105 123 -105t123 105v811h469v-811q0 -294 -130.5 -422.5t-387.5 -128.5q-276 0 -401 137q-122 -137 -398 -137q-257 0 -387.5 128.5t-130.5 422.5z" />
<glyph unicode="x" d="M113 0l577 684l-547 647h564l303 -358l303 358h563l-549 -647l580 -684h-564l-333 393l-334 -393h-563z" />
<glyph unicode="y" d="M205 672v659h469v-659q0 -105 157 -105h375q129 0 129 105v659h469v-1227q0 -278 -157 -399t-469 -121h-875v416h875q157 0 157 104v199q-145 -151 -504 -151q-312 0 -469 121t-157 399z" />
<glyph unicode="z" d="M299 0v362l696 553h-696v416h1423v-362l-696 -553h696v-416h-1423z" />
<glyph unicode="{" d="M733 561v414h72q158 0 158 104v353q0 278 157 399t469 121h174v-416h-174q-157 0 -157 -104v-353q0 -229 -224 -311q224 -85 224 -311v-353q0 -104 157 -104h174v-416h-174q-312 0 -469 121t-157 399v353q0 104 -158 104h-72z" />
<glyph unicode="|" d="M758 -416v1952h504v-1952h-504z" />
<glyph unicode="}" d="M256 0h174q158 0 158 104v353q0 226 223 311q-223 82 -223 311v353q0 104 -158 104h-174v416h174q312 0 469.5 -121t157.5 -399v-353q0 -104 157 -104h72v-414h-72q-157 0 -157 -104v-353q0 -278 -157.5 -399t-469.5 -121h-174v416z" />
<glyph unicode="~" d="M178 487v60q0 278 118 399t353 121q88 0 164 -18.5t130.5 -45t106 -53t112 -45t124.5 -18.5q39 0 61.5 26.5t22.5 77.5v60h469v-60q0 -278 -118 -399t-353 -121q-88 0 -164 18.5t-130.5 45t-106 53t-112 45t-124.5 18.5q-39 0 -61.5 -26.5t-22.5 -77.5v-60h-469z" />
<glyph unicode="&#xa0;" />
<glyph unicode="&#xa1;" d="M1079 1284q0 117 83 200t200 83t200 -83t83 -200t-83 -200t-200 -83t-200 83t-83 200zM1110 0v881h504v-881h-504z" />
<glyph unicode="&#xa2;" d="M319 520v291q0 278 157.5 399t469.5 121v187h397v-187h361v-416h-758q-158 0 -158 -104v-291q0 -104 158 -104h758v-416h-361v-186h-397v186q-312 0 -469.5 121t-157.5 399z" />
<glyph unicode="&#xa3;" d="M135 0v446h8q152 6 162 207h-170v230h172v53q0 164 47.5 280t142 186t225.5 102t308 32h98q177 0 308 -32t225.5 -102t142 -186t47.5 -280v-72h-503v72q0 154 -220 154h-98q-219 0 -219 -154q0 -37 -2 -53h289v-230h-316q-39 -147 -131 -207h1200v-446h-1716z" />
<glyph unicode="&#xa5;" d="M31 1536h600l379 -446l379 446h600l-725 -854h342v-229h-344v-93h344v-229h-344v-131h-504v131h-344v229h344v93h-344v229h342z" />
<glyph unicode="&#xa7;" d="M293 496q0 205 113 309q-113 101 -113 311q0 224 128 322t382 98h883v-416h-883q-55 0 -55 -37q0 -36 55 -36h416q254 0 382 -98t128 -324q0 -207 -115 -310q115 -103 115 -311q0 -224 -128 -322t-382 -98h-883v416h883q55 0 55 37t-55 37h-416q-254 0 -382 98t-128 324z M748 463q0 -37 55 -37h471v231q0 37 -55 37h-471v-231z" />
<glyph unicode="&#xa8;" horiz-adv-x="802" d="M0 1573q0 73 52 125.5t126 52.5t126 -52.5t52 -125.5t-52 -125.5t-126 -52.5t-126 52.5t-52 125.5zM446 1573q0 73 52.5 125.5t126.5 52.5q73 0 125.5 -52.5t52.5 -125.5t-52.5 -125.5t-125.5 -52.5q-74 0 -126.5 52.5t-52.5 125.5z" />
<glyph unicode="&#xa9;" d="M137 600v336q0 164 47.5 280t142 186t225.5 102t308 32h297q177 0 308 -32t225.5 -102t142 -186t47.5 -280v-336q0 -164 -47.5 -280t-142 -186t-225.5 -102t-308 -32h-297q-177 0 -308 32t-225.5 102t-142 186t-47.5 280zM387 539q0 -318 430 -318h383q430 0 430 318v458 q0 318 -430 318h-383q-430 0 -430 -318v-458zM598 694v150q0 149 83 213.5t249 64.5h403v-221h-403q-82 0 -82 -57v-150q0 -57 82 -57h403v-221h-403q-166 0 -249 64.5t-83 213.5z" />
<glyph unicode="&#xaa;" d="M324 856v270q0 227 128.5 326.5t381.5 99.5q269 0 393 -96v80h469v-1090h-469v78q-122 -94 -391 -94q-254 0 -383 99.5t-129 326.5zM758 903q0 -82 116 -82h236q117 0 117 82v178q0 82 -117 82h-236q-116 0 -116 -82v-178z" />
<glyph unicode="&#xab;" d="M461 666l170 475h254v-948h-254zM932 666l170 475h254v-948h-254z" />
<glyph unicode="&#xac;" d="M319 565v406h1369v-690h-469v284h-900z" />
<glyph unicode="&#xad;" d="M498 565v406h1024v-406h-1024z" />
<glyph unicode="&#xae;" d="M137 600v336q0 164 47.5 280t142 186t225.5 102t308 32h297q177 0 308 -32t225.5 -102t142 -186t47.5 -280v-336q0 -164 -47.5 -280t-142 -186t-225.5 -102t-308 -32h-297q-177 0 -308 32t-225.5 102t-142 186t-47.5 280zM387 539q0 -318 430 -318h383q430 0 430 318v458 q0 318 -430 318h-383q-430 0 -430 -318v-458zM621 416v706h473q165 0 248 -64.5t83 -211.5q0 -180 -129 -240l162 -190h-291l-131 153h-166v-153h-249zM870 791h224q75 0 75 55t-75 55h-224v-110z" />
<glyph unicode="&#xb0;" d="M205 1065v174q0 159 90.5 228t269.5 69h217q179 0 270 -69t91 -228v-174q0 -159 -91 -228t-270 -69h-217q-179 0 -269.5 69t-90.5 228zM455 1065q0 -76 110 -76h217q109 0 109 76v174q0 76 -109 76h-217q-110 0 -110 -76v-174z" />
<glyph unicode="&#xb1;" d="M453 303v406h1114v-406h-1114zM453 827v406h307v299h504v-299h303v-406h-1114z" />
<glyph unicode="&#xb4;" horiz-adv-x="444" d="M0 1425v295h444l-106 -295h-338z" />
<glyph unicode="&#xb5;" d="M164 -416v1747h469v-811q0 -104 127 -104h336q129 0 129 104v811h469v-811q0 -104 157 -104h86v-416h-86q-355 0 -503 152q-82 -152 -306 -152h-106q-220 0 -303 143v-559h-469z" />
<glyph unicode="&#xb6;" d="M98 936q0 164 47.5 280t142 186t225.5 102t308 32h1071v-1952h-397v1506h-197v-1506h-397v752h-80q-177 0 -308 32t-225.5 102t-142 186t-47.5 280z" />
<glyph unicode="&#xb7;" d="M727 961q0 117 83 199.5t200 82.5t199.5 -82.5t82.5 -199.5t-82.5 -200t-199.5 -83t-200 83t-83 200z" />
<glyph unicode="&#xb8;" horiz-adv-x="481" d="M0 -416l45 125h240q57 0 57 37t-57 37h-209l114 321h76v-194h19q99 0 147.5 -38t48.5 -126q0 -87 -48.5 -124.5t-147.5 -37.5h-285z" />
<glyph unicode="&#xba;" d="M340 872v238q0 227 129 326.5t383 99.5h311q256 0 385 -99.5t129 -326.5v-238q0 -227 -129 -326.5t-385 -99.5h-311q-254 0 -383 99.5t-129 326.5zM774 903q0 -82 117 -82h235q117 0 117 82v178q0 82 -117 82h-235q-117 0 -117 -82v-178z" />
<glyph unicode="&#xbb;" d="M664 193v948h254l169 -475l-169 -473h-254zM1135 193v948h254l170 -475l-170 -473h-254z" />
<glyph unicode="&#xbf;" d="M645 440q0 236 157 338.5t468 102.5h123v-316h-123q-90 0 -90 -57q0 -62 90 -62h534v-446h-534q-311 0 -468 102t-157 338zM985 1284q0 117 83 200t200 83t199.5 -83t82.5 -200t-82.5 -200t-199.5 -83t-200 83t-83 200z" />
<glyph unicode="&#xc0;" d="M2 0l721 1536h573l721 -1536h-528l-94 201h-770l-95 -201h-528zM739 1925h445v-295h-338zM815 606h389l-194 414z" />
<glyph unicode="&#xc1;" d="M2 0l721 1536h573l721 -1536h-528l-94 201h-770l-95 -201h-528zM815 606h389l-194 414zM838 1599v295h444l-106 -295h-338z" />
<glyph unicode="&#xc2;" d="M2 0l721 1536h573l721 -1536h-528l-94 201h-770l-95 -201h-528zM721 1630l106 295h365l106 -295h-577zM815 606h389l-194 414z" />
<glyph unicode="&#xc3;" d="M2 0l721 1536h573l721 -1536h-528l-94 201h-770l-95 -201h-528zM514 1630v15q0 166 70.5 238.5t210.5 72.5q64 0 118.5 -17t84 -37.5t62 -37.5t58.5 -17q49 0 49 64v14h338v-14q0 -167 -70 -239.5t-210 -72.5q-64 0 -118.5 17t-84 37.5t-62.5 37.5t-59 17q-49 0 -49 -63 v-15h-338zM815 606h389l-194 414z" />
<glyph unicode="&#xc4;" d="M2 0l721 1536h573l721 -1536h-528l-94 201h-770l-95 -201h-528zM608 1778q0 74 52 126t126 52t126.5 -52.5t52.5 -125.5q0 -74 -52.5 -126.5t-126.5 -52.5q-73 0 -125.5 52.5t-52.5 126.5zM815 606h389l-194 414zM1055 1778q0 74 52.5 126t125.5 52t125.5 -52t52.5 -126 t-52.5 -126.5t-125.5 -52.5t-125.5 52.5t-52.5 126.5z" />
<glyph unicode="&#xc5;" d="M2 0l721 1536h573l721 -1536h-528l-94 201h-770l-95 -201h-528zM750 1757v41q0 68 38 97.5t113 29.5h219q74 0 113 -29.5t39 -97.5v-41q0 -68 -39 -97.5t-113 -29.5h-219q-75 0 -113 29.5t-38 97.5zM815 606h389l-194 414zM901 1776q0 -21 25 -21h168q26 0 26 21 q0 22 -26 22h-168q-25 0 -25 -22z" />
<glyph unicode="&#xc6;" d="M-51 0l721 1536h1308v-446h-526l55 -119h471v-406h-280l55 -119h225v-446h-542l-95 201h-770l-94 -201h-528zM762 606h389l-195 414z" />
<glyph unicode="&#xc7;" d="M166 600v336q0 164 47.5 280t142 186t225.5 102t308 32h954v-446h-954q-219 0 -219 -154v-336q0 -154 219 -154h954v-446h-684v-90h19q99 0 147.5 -38t48.5 -126q0 -87 -48.5 -124.5t-147.5 -37.5h-285l45 125h240q57 0 57 37t-57 37h-209l78 217h-158q-177 0 -308 32 t-225.5 102t-142 186t-47.5 280z" />
<glyph unicode="&#xc8;" d="M186 0v1536h1643v-446h-1139v-119h1139v-406h-1139v-119h1139v-446h-1643zM774 1925h445v-295h-338z" />
<glyph unicode="&#xc9;" d="M186 0v1536h1643v-446h-1139v-119h1139v-406h-1139v-119h1139v-446h-1643zM881 1630v295h444l-106 -295h-338z" />
<glyph unicode="&#xca;" d="M186 0v1536h1643v-446h-1139v-119h1139v-406h-1139v-119h1139v-446h-1643zM760 1630l106 295h365l106 -295h-577z" />
<glyph unicode="&#xcb;" d="M186 0v1536h1643v-446h-1139v-119h1139v-406h-1139v-119h1139v-446h-1643zM647 1778q0 74 52.5 126t125.5 52q74 0 126.5 -52.5t52.5 -125.5q0 -74 -53 -126.5t-126 -52.5t-125.5 52.5t-52.5 126.5zM1094 1778q0 74 52 126t126 52t126 -52t52 -126t-52.5 -126.5 t-125.5 -52.5t-125.5 52.5t-52.5 126.5z" />
<glyph unicode="&#xcc;" d="M334 0v446h424v644h-424v446h1352v-446h-424v-644h424v-446h-1352zM721 1925h444v-295h-338z" />
<glyph unicode="&#xcd;" d="M334 0v446h424v644h-424v446h1352v-446h-424v-644h424v-446h-1352zM827 1630v295h445l-107 -295h-338z" />
<glyph unicode="&#xce;" d="M334 0v446h424v644h-424v446h1352v-446h-424v-644h424v-446h-1352zM721 1630l106 295h365l106 -295h-577z" />
<glyph unicode="&#xcf;" d="M334 0v446h424v644h-424v446h1352v-446h-424v-644h424v-446h-1352zM608 1778q0 74 52 126t126 52t126.5 -52.5t52.5 -125.5q0 -74 -52.5 -126.5t-126.5 -52.5q-73 0 -125.5 52.5t-52.5 126.5zM1055 1778q0 74 52.5 126t125.5 52t125.5 -52t52.5 -126t-52.5 -126.5 t-125.5 -52.5t-125.5 52.5t-52.5 126.5z" />
<glyph unicode="&#xd0;" d="M-59 653v230h170v653h1095q177 0 308 -32t225.5 -102t142 -186t47.5 -280v-336q0 -164 -47.5 -280t-142 -186t-225.5 -102t-308 -32h-1095v653h-170zM614 446h592q219 0 219 154v336q0 154 -219 154h-592v-207h289v-230h-289v-207z" />
<glyph unicode="&#xd1;" d="M154 0v1536h503l705 -829v829h504v-1536h-504l-705 829v-829h-503zM512 1630v15q0 166 70.5 238.5t210.5 72.5q64 0 118.5 -17t84 -37.5t62 -37.5t58.5 -17q49 0 49 64v14h338v-14q0 -167 -70 -239.5t-210 -72.5q-64 0 -118.5 17t-84 37.5t-62.5 37.5t-59 17 q-49 0 -49 -63v-15h-338z" />
<glyph unicode="&#xd2;" d="M68 600v336q0 164 47.5 280t142 186t225.5 102t308 32h438q177 0 308 -32t225.5 -102t142 -186t47.5 -280v-336q0 -164 -47.5 -280t-142 -186t-225.5 -102t-308 -32h-438q-177 0 -308 32t-225.5 102t-142 186t-47.5 280zM571 600q0 -154 220 -154h438q219 0 219 154v336 q0 154 -219 154h-438q-220 0 -220 -154v-336zM735 1925h445v-295h-338z" />
<glyph unicode="&#xd3;" d="M68 600v336q0 164 47.5 280t142 186t225.5 102t308 32h438q177 0 308 -32t225.5 -102t142 -186t47.5 -280v-336q0 -164 -47.5 -280t-142 -186t-225.5 -102t-308 -32h-438q-177 0 -308 32t-225.5 102t-142 186t-47.5 280zM571 600q0 -154 220 -154h438q219 0 219 154v336 q0 154 -219 154h-438q-220 0 -220 -154v-336zM842 1630v295h444l-106 -295h-338z" />
<glyph unicode="&#xd4;" d="M68 600v336q0 164 47.5 280t142 186t225.5 102t308 32h438q177 0 308 -32t225.5 -102t142 -186t47.5 -280v-336q0 -164 -47.5 -280t-142 -186t-225.5 -102t-308 -32h-438q-177 0 -308 32t-225.5 102t-142 186t-47.5 280zM571 600q0 -154 220 -154h438q219 0 219 154v336 q0 154 -219 154h-438q-220 0 -220 -154v-336zM721 1630l106 295h365l106 -295h-577z" />
<glyph unicode="&#xd5;" d="M68 600v336q0 164 47.5 280t142 186t225.5 102t308 32h438q177 0 308 -32t225.5 -102t142 -186t47.5 -280v-336q0 -164 -47.5 -280t-142 -186t-225.5 -102t-308 -32h-438q-177 0 -308 32t-225.5 102t-142 186t-47.5 280zM514 1630v15q0 166 70.5 238.5t210.5 72.5 q64 0 118.5 -17t84 -37.5t62 -37.5t58.5 -17q49 0 49 64v14h338v-14q0 -167 -70 -239.5t-210 -72.5q-64 0 -118.5 17t-84 37.5t-62.5 37.5t-59 17q-49 0 -49 -63v-15h-338zM571 600q0 -154 220 -154h438q219 0 219 154v336q0 154 -219 154h-438q-220 0 -220 -154v-336z" />
<glyph unicode="&#xd6;" d="M68 600v336q0 164 47.5 280t142 186t225.5 102t308 32h438q177 0 308 -32t225.5 -102t142 -186t47.5 -280v-336q0 -164 -47.5 -280t-142 -186t-225.5 -102t-308 -32h-438q-177 0 -308 32t-225.5 102t-142 186t-47.5 280zM571 600q0 -154 220 -154h438q219 0 219 154v336 q0 154 -219 154h-438q-220 0 -220 -154v-336zM608 1778q0 74 52 126t126 52t126.5 -52.5t52.5 -125.5q0 -74 -52.5 -126.5t-126.5 -52.5q-73 0 -125.5 52.5t-52.5 126.5zM1055 1778q0 74 52.5 126t125.5 52t125.5 -52t52.5 -126t-52.5 -126.5t-125.5 -52.5t-125.5 52.5 t-52.5 126.5z" />
<glyph unicode="&#xd8;" d="M68 600v336q0 164 47.5 280t142 186t225.5 102t308 32h438q177 0 308 -32t225.5 -102t142 -186t47.5 -280v-336q0 -164 -47.5 -280t-142 -186t-225.5 -102t-308 -32h-438q-177 0 -308 32t-225.5 102t-142 186t-47.5 280zM571 600q0 -21 2 -31l439 521h-221 q-220 0 -220 -154v-336zM1006 446h223q219 0 219 154v336q0 19 -2 29z" />
<glyph unicode="&#xd9;" d="M121 600v936h504v-936q0 -154 219 -154h332q219 0 219 154v936h503v-936q0 -164 -47 -280t-141.5 -186t-225.5 -102t-308 -32h-332q-177 0 -308 32t-225.5 102t-142 186t-47.5 280zM735 1925h445v-295h-338z" />
<glyph unicode="&#xda;" d="M121 600v936h504v-936q0 -154 219 -154h332q219 0 219 154v936h503v-936q0 -164 -47 -280t-141.5 -186t-225.5 -102t-308 -32h-332q-177 0 -308 32t-225.5 102t-142 186t-47.5 280zM842 1630v295h444l-106 -295h-338z" />
<glyph unicode="&#xdb;" d="M121 600v936h504v-936q0 -154 219 -154h332q219 0 219 154v936h503v-936q0 -164 -47 -280t-141.5 -186t-225.5 -102t-308 -32h-332q-177 0 -308 32t-225.5 102t-142 186t-47.5 280zM721 1630l106 295h365l106 -295h-577z" />
<glyph unicode="&#xdc;" d="M121 600v936h504v-936q0 -154 219 -154h332q219 0 219 154v936h503v-936q0 -164 -47 -280t-141.5 -186t-225.5 -102t-308 -32h-332q-177 0 -308 32t-225.5 102t-142 186t-47.5 280zM608 1778q0 74 52 126t126 52t126.5 -52.5t52.5 -125.5q0 -74 -52.5 -126.5 t-126.5 -52.5q-73 0 -125.5 52.5t-52.5 126.5zM1055 1778q0 74 52.5 126t125.5 52t125.5 -52t52.5 -126t-52.5 -126.5t-125.5 -52.5t-125.5 52.5t-52.5 126.5z" />
<glyph unicode="&#xdd;" d="M31 1536h600l379 -446l379 446h600l-727 -856v-680h-504v680zM842 1630v295h444l-106 -295h-338z" />
<glyph unicode="&#xde;" d="M117 0v1536h504v-119h579q177 0 308 -32t225.5 -102t142 -186t47.5 -280v-92q0 -164 -47.5 -280t-142 -186t-225.5 -102t-308 -32h-579v-125h-504zM621 571h579q219 0 219 154v92q0 154 -219 154h-579v-400z" />
<glyph unicode="&#xdf;" d="M258 0v1016q0 278 157.5 399t469.5 121h205q313 0 470.5 -98t157.5 -322q0 -220 -162 -323q265 -91 265 -373q0 -224 -158 -322t-471 -98h-389v416h389q133 0 133 88t-133 88h-389v352h287q133 0 133 88t-133 88h-205q-158 0 -158 -104v-1016h-469z" />
<glyph unicode="&#xe0;" d="M225 420q0 226 128 324t382 98h203q287 0 418 -92v61q0 104 -158 104h-874v416h874q312 0 469.5 -121t157.5 -399v-811h-469v135q-149 -135 -494 -135h-127q-254 0 -382 98t-128 322zM680 453q0 -37 55 -37h565q56 0 56 37q0 36 -56 36h-565q-55 0 -55 -36zM750 1720h444 v-295h-338z" />
<glyph unicode="&#xe1;" d="M225 420q0 226 128 324t382 98h203q287 0 418 -92v61q0 104 -158 104h-874v416h874q312 0 469.5 -121t157.5 -399v-811h-469v135q-149 -135 -494 -135h-127q-254 0 -382 98t-128 322zM680 453q0 -37 55 -37h565q56 0 56 37q0 36 -56 36h-565q-55 0 -55 -36zM856 1425v295 h444l-106 -295h-338z" />
<glyph unicode="&#xe2;" d="M225 420q0 226 128 324t382 98h203q287 0 418 -92v61q0 104 -158 104h-874v416h874q312 0 469.5 -121t157.5 -399v-811h-469v135q-149 -135 -494 -135h-127q-254 0 -382 98t-128 322zM680 453q0 -37 55 -37h565q56 0 56 37q0 36 -56 36h-565q-55 0 -55 -36zM750 1425 l106 295h365l106 -295h-577z" />
<glyph unicode="&#xe3;" d="M225 420q0 226 128 324t382 98h203q287 0 418 -92v61q0 104 -158 104h-874v416h874q312 0 469.5 -121t157.5 -399v-811h-469v135q-149 -135 -494 -135h-127q-254 0 -382 98t-128 322zM528 1425v15q0 166 70.5 238.5t210.5 72.5q64 0 118.5 -17t84 -37.5t62.5 -37.5 t59 -17q49 0 49 64v14h338v-14q0 -166 -70.5 -238.5t-210.5 -72.5q-64 0 -118.5 17t-84 37t-62.5 37t-59 17q-49 0 -49 -63v-15h-338zM680 453q0 -37 55 -37h565q56 0 56 37q0 36 -56 36h-565q-55 0 -55 -36z" />
<glyph unicode="&#xe4;" d="M225 420q0 226 128 324t382 98h203q287 0 418 -92v61q0 104 -158 104h-874v416h874q312 0 469.5 -121t157.5 -399v-811h-469v135q-149 -135 -494 -135h-127q-254 0 -382 98t-128 322zM623 1573q0 73 52.5 125.5t125.5 52.5t125.5 -52.5t52.5 -125.5t-52.5 -125.5 t-125.5 -52.5t-125.5 52.5t-52.5 125.5zM680 453q0 -37 55 -37h565q56 0 56 37q0 36 -56 36h-565q-55 0 -55 -36zM1069 1573q0 73 52.5 125.5t125.5 52.5t125.5 -52.5t52.5 -125.5t-52.5 -125.5t-125.5 -52.5t-125.5 52.5t-52.5 125.5z" />
<glyph unicode="&#xe5;" d="M225 420q0 226 128 324t382 98h203q287 0 418 -92v61q0 104 -158 104h-874v416h874q312 0 469.5 -121t157.5 -399v-811h-469v135q-149 -135 -494 -135h-127q-254 0 -382 98t-128 322zM680 453q0 -37 55 -37h565q56 0 56 37q0 36 -56 36h-565q-55 0 -55 -36zM764 1552v41 q0 68 38 97.5t113 29.5h220q74 0 112.5 -29.5t38.5 -97.5v-41q0 -68 -38.5 -97.5t-112.5 -29.5h-220q-75 0 -113 29.5t-38 97.5zM915 1571q0 -21 25 -21h168q27 0 27 21q0 22 -27 22h-168q-25 0 -25 -22z" />
<glyph unicode="&#xe6;" horiz-adv-x="2504" d="M162 420q0 226 128 324t382 98q225 0 334 -78v47q0 104 -158 104h-588v416h557q342 0 494 -143q117 143 393 143h104q254 0 382 -98t128 -322q0 -226 -128 -324t-382 -98q-228 0 -333 78v-47q0 -104 157 -104h588v-416h-557q-347 0 -496 141q-116 -141 -391 -141h-104 q-254 0 -382 98t-128 322zM616 453q0 -37 56 -37h278q56 0 56 37q0 36 -56 36h-278q-56 0 -56 -36zM1475 879q0 -34 45 -37h288q56 0 56 37q0 36 -56 36h-288q-45 -3 -45 -36z" />
<glyph unicode="&#xe7;" d="M317 520v291q0 278 157.5 399t469.5 121h758v-416h-758q-158 0 -158 -104v-291q0 -104 158 -104h758v-416h-580v-90h19q99 0 147.5 -38t48.5 -126q0 -87 -48.5 -124.5t-147.5 -37.5h-285l45 125h240q57 0 57 37t-57 37h-209l78 217h-66q-312 0 -469.5 121t-157.5 399z " />
<glyph unicode="&#xe8;" d="M225 520v291q0 278 157.5 399t469.5 121h463q254 0 382 -98t128 -322q0 -226 -128 -324t-382 -98h-203q-285 0 -418 91v-60q0 -104 158 -104h924v-416h-924q-312 0 -469.5 121t-157.5 399zM694 879q0 -37 56 -37h565q55 0 55 37q0 36 -55 36h-565q-56 0 -56 -36z M754 1720h444v-295h-338z" />
<glyph unicode="&#xe9;" d="M225 520v291q0 278 157.5 399t469.5 121h463q254 0 382 -98t128 -322q0 -226 -128 -324t-382 -98h-203q-285 0 -418 91v-60q0 -104 158 -104h924v-416h-924q-312 0 -469.5 121t-157.5 399zM694 879q0 -37 56 -37h565q55 0 55 37q0 36 -55 36h-565q-56 0 -56 -36z M852 1425v295h444l-106 -295h-338z" />
<glyph unicode="&#xea;" d="M225 520v291q0 278 157.5 399t469.5 121h463q254 0 382 -98t128 -322q0 -226 -128 -324t-382 -98h-203q-285 0 -418 91v-60q0 -104 158 -104h924v-416h-924q-312 0 -469.5 121t-157.5 399zM694 879q0 -37 56 -37h565q55 0 55 37q0 36 -55 36h-565q-56 0 -56 -36z M737 1425l107 295h364l107 -295h-578z" />
<glyph unicode="&#xeb;" d="M225 520v291q0 278 157.5 399t469.5 121h463q254 0 382 -98t128 -322q0 -226 -128 -324t-382 -98h-203q-285 0 -418 91v-60q0 -104 158 -104h924v-416h-924q-312 0 -469.5 121t-157.5 399zM623 1573q0 73 52.5 125.5t125.5 52.5t125.5 -52.5t52.5 -125.5t-52.5 -125.5 t-125.5 -52.5t-125.5 52.5t-52.5 125.5zM694 879q0 -37 56 -37h565q55 0 55 37q0 36 -55 36h-565q-56 0 -56 -36zM1069 1573q0 73 52.5 125.5t125.5 52.5t125.5 -52.5t52.5 -125.5t-52.5 -125.5t-125.5 -52.5t-125.5 52.5t-52.5 125.5z" />
<glyph unicode="&#xec;" d="M399 0v416h377v499h-377v416h1221v-416h-375v-499h375v-416h-1221zM737 1720h445v-295h-338z" />
<glyph unicode="&#xed;" d="M399 0v416h377v499h-377v416h1221v-416h-375v-499h375v-416h-1221zM836 1425v295h444l-106 -295h-338z" />
<glyph unicode="&#xee;" d="M399 0v416h377v499h-377v416h1221v-416h-375v-499h375v-416h-1221zM721 1425l106 295h365l106 -295h-577z" />
<glyph unicode="&#xef;" d="M399 0v416h377v499h-377v416h1221v-416h-375v-499h375v-416h-1221zM608 1573q0 73 52 125.5t126 52.5t126.5 -52.5t52.5 -125.5t-52.5 -125.5t-126.5 -52.5t-126 52.5t-52 125.5zM1055 1573q0 73 52.5 125.5t125.5 52.5t125.5 -52.5t52.5 -125.5t-52.5 -125.5 t-125.5 -52.5t-125.5 52.5t-52.5 125.5z" />
<glyph unicode="&#xf0;" d="M178 485q0 260 147.5 373t440.5 113q190 0 293 -70l-541 635h600l182 -215l185 215h350l-360 -420l258 -301q102 -117 102 -330q0 -260 -147.5 -372.5t-440.5 -112.5h-481q-293 0 -440.5 112.5t-147.5 372.5zM680 508q0 -62 86 -62h481q86 0 86 62q0 57 -86 57h-481 q-86 0 -86 -57z" />
<glyph unicode="&#xf1;" d="M215 0v1331h469v-141q38 44 90 74q15 10 60 28q29 12 45 17q6 2 73 18q9 0 13 2q10 0 26 4q81 6 84 6q20 2 62 2h51h29l86 -4q81 -6 151 -24l45 -13l21 -6q6 -2 20 -7.5t21 -8.5q83 -39 135 -94l12 -15l12 -16q24 -29 43 -70q16 -37 17 -41l8 -20q12 -48 16 -70 q0 -4 1 -12t1 -12l4 -25q5 -67 5 -82v-821h-469v821q0 7 -5 27q-4 18 -12 29q-1 3 -12 14l-14 10q-8 4 -9 4q-8 4 -10 4q-30 12 -37 13l-39 4h-20h-375q-30 0 -51 -6h-4l-19 -7l-12 -6q-16 -12 -22 -20l-5 -6q-1 -1 -12 -23q-1 -2 -2 -8.5t-2 -9.5v-9v-10v-821h-469z M528 1425v15q0 166 70.5 238.5t210.5 72.5q64 0 118.5 -17t84 -37.5t62.5 -37.5t59 -17q49 0 49 64v14h338v-14q0 -166 -70.5 -238.5t-210.5 -72.5q-64 0 -118.5 17t-84 37t-62.5 37t-59 17q-49 0 -49 -63v-15h-338z" />
<glyph unicode="&#xf2;" d="M193 520v291q0 278 157 399t469 121h381q312 0 469.5 -121t157.5 -399v-291q0 -278 -157.5 -399t-469.5 -121h-381q-312 0 -469 121t-157 399zM662 520q0 -104 157 -104h381q158 0 158 104v291q0 104 -158 104h-381q-157 0 -157 -104v-291zM735 1720h445v-295h-338z" />
<glyph unicode="&#xf3;" d="M193 520v291q0 278 157 399t469 121h381q312 0 469.5 -121t157.5 -399v-291q0 -278 -157.5 -399t-469.5 -121h-381q-312 0 -469 121t-157 399zM662 520q0 -104 157 -104h381q158 0 158 104v291q0 104 -158 104h-381q-157 0 -157 -104v-291zM842 1425v295h444l-106 -295 h-338z" />
<glyph unicode="&#xf4;" d="M193 520v291q0 278 157 399t469 121h381q312 0 469.5 -121t157.5 -399v-291q0 -278 -157.5 -399t-469.5 -121h-381q-312 0 -469 121t-157 399zM662 520q0 -104 157 -104h381q158 0 158 104v291q0 104 -158 104h-381q-157 0 -157 -104v-291zM721 1425l106 295h365 l106 -295h-577z" />
<glyph unicode="&#xf5;" d="M193 520v291q0 278 157 399t469 121h381q312 0 469.5 -121t157.5 -399v-291q0 -278 -157.5 -399t-469.5 -121h-381q-312 0 -469 121t-157 399zM514 1425v15q0 166 70.5 238.5t210.5 72.5q64 0 118.5 -17t84 -37.5t62 -37.5t58.5 -17q49 0 49 64v14h338v-14 q0 -166 -70 -238.5t-210 -72.5q-64 0 -118.5 17t-84 37t-62.5 37t-59 17q-49 0 -49 -63v-15h-338zM662 520q0 -104 157 -104h381q158 0 158 104v291q0 104 -158 104h-381q-157 0 -157 -104v-291z" />
<glyph unicode="&#xf6;" d="M193 520v291q0 278 157 399t469 121h381q312 0 469.5 -121t157.5 -399v-291q0 -278 -157.5 -399t-469.5 -121h-381q-312 0 -469 121t-157 399zM608 1573q0 73 52 125.5t126 52.5t126.5 -52.5t52.5 -125.5t-52.5 -125.5t-126.5 -52.5t-126 52.5t-52 125.5zM662 520 q0 -104 157 -104h381q158 0 158 104v291q0 104 -158 104h-381q-157 0 -157 -104v-291zM1055 1573q0 73 52.5 125.5t125.5 52.5t125.5 -52.5t52.5 -125.5t-52.5 -125.5t-125.5 -52.5t-125.5 52.5t-52.5 125.5z" />
<glyph unicode="&#xf7;" d="M453 565v406h1114v-406h-1114zM786 223q0 92 66 157.5t158 65.5t157.5 -65.5t65.5 -157.5t-65.5 -157.5t-157.5 -65.5t-158 65.5t-66 157.5zM786 1313q0 92 66 157.5t158 65.5t157.5 -65.5t65.5 -157.5t-65.5 -157.5t-157.5 -65.5t-158 65.5t-66 157.5z" />
<glyph unicode="&#xf8;" d="M193 520v291q0 278 157 399t469 121h381q312 0 469.5 -121t157.5 -399v-291q0 -278 -157.5 -399t-469.5 -121h-381q-312 0 -469 121t-157 399zM662 551l309 364h-152q-157 0 -157 -104v-260zM1047 416h153q158 0 158 104v262z" />
<glyph unicode="&#xf9;" d="M205 510v821h469v-821q0 -104 157 -104h375q60 0 94.5 26.5t34.5 77.5v821h469v-1331h-469v139q-132 -149 -452 -149h-52q-312 0 -469 121t-157 399zM729 1720h445v-295h-338z" />
<glyph unicode="&#xfa;" d="M205 510v821h469v-821q0 -104 157 -104h375q60 0 94.5 26.5t34.5 77.5v821h469v-1331h-469v139q-132 -149 -452 -149h-52q-312 0 -469 121t-157 399zM836 1425v295h444l-106 -295h-338z" />
<glyph unicode="&#xfb;" d="M205 510v821h469v-821q0 -104 157 -104h375q60 0 94.5 26.5t34.5 77.5v821h469v-1331h-469v139q-132 -149 -452 -149h-52q-312 0 -469 121t-157 399zM709 1425l106 295h365l106 -295h-577z" />
<glyph unicode="&#xfc;" d="M205 510v821h469v-821q0 -104 157 -104h375q60 0 94.5 26.5t34.5 77.5v821h469v-1331h-469v139q-132 -149 -452 -149h-52q-312 0 -469 121t-157 399zM602 1573q0 73 52 125.5t126 52.5t126 -52.5t52 -125.5t-52 -125.5t-126 -52.5t-126 52.5t-52 125.5zM1049 1573 q0 73 52.5 125.5t125.5 52.5t125.5 -52.5t52.5 -125.5t-52.5 -125.5t-125.5 -52.5t-125.5 52.5t-52.5 125.5z" />
<glyph unicode="&#xfd;" d="M205 672v659h469v-659q0 -105 157 -105h375q129 0 129 105v659h469v-1227q0 -278 -157 -399t-469 -121h-875v416h875q157 0 157 104v199q-145 -151 -504 -151q-312 0 -469 121t-157 399zM836 1425v295h444l-106 -295h-338z" />
<glyph unicode="&#xfe;" d="M215 -416v1952h469v-336q125 131 406 131h131q312 0 469 -121t157 -399v-291q0 -278 -157 -399t-469 -121h-131q-281 0 -406 131v-547h-469zM684 520q0 -104 129 -104h408q157 0 157 104v291q0 104 -157 104h-408q-60 0 -94.5 -26.5t-34.5 -77.5v-291z" />
<glyph unicode="&#xff;" d="M205 672v659h469v-659q0 -105 157 -105h375q129 0 129 105v659h469v-1227q0 -278 -157 -399t-469 -121h-875v416h875q157 0 157 104v199q-145 -151 -504 -151q-312 0 -469 121t-157 399zM602 1573q0 73 52 125.5t126 52.5t126 -52.5t52 -125.5t-52 -125.5t-126 -52.5 t-126 52.5t-52 125.5zM1049 1573q0 73 52.5 125.5t125.5 52.5t125.5 -52.5t52.5 -125.5t-52.5 -125.5t-125.5 -52.5t-125.5 52.5t-52.5 125.5z" />
<glyph unicode="&#x152;" d="M68 600v336q0 164 47.5 280t142 186t225.5 102t308 32h1187v-446h-532v-119h532v-406h-532v-119h532v-446h-1187q-177 0 -308 32t-225.5 102t-142 186t-47.5 280zM571 600q0 -154 220 -154h151v644h-151q-220 0 -220 -154v-336z" />
<glyph unicode="&#x153;" d="M86 520v291q0 278 116.5 399t346.5 121h135q197 0 291 -94q120 94 344 94h104q254 0 382 -98t128 -322q0 -226 -128 -324t-382 -98h-14q-115 0 -197 21q6 -94 158 -94h465v-416h-465q-251 0 -373 119q-93 -119 -313 -119h-135q-230 0 -346.5 121t-116.5 399zM506 520 q0 -104 108 -104h21q108 0 108 104v291q0 104 -108 104h-21q-108 0 -108 -104v-291zM1212 879q0 -37 56 -37h155q56 0 56 37q0 36 -56 36h-166q-45 -3 -45 -36z" />
<glyph unicode="&#x178;" d="M31 1536h600l379 -446l379 446h600l-727 -856v-680h-504v680zM608 1778q0 74 52 126t126 52t126.5 -52.5t52.5 -125.5q0 -74 -52.5 -126.5t-126.5 -52.5q-73 0 -125.5 52.5t-52.5 126.5zM1055 1778q0 74 52.5 126t125.5 52t125.5 -52t52.5 -126t-52.5 -126.5 t-125.5 -52.5t-125.5 52.5t-52.5 126.5z" />
<glyph unicode="&#x2c6;" horiz-adv-x="577" d="M0 1425l106 295h365l107 -295h-578z" />
<glyph unicode="&#x2dc;" horiz-adv-x="991" d="M0 1425v15q0 166 70.5 238.5t210.5 72.5q64 0 118.5 -17t84 -37.5t62 -37.5t58.5 -17q49 0 49 64v14h338v-14q0 -166 -70 -238.5t-210 -72.5q-64 0 -118.5 17t-84 37t-62.5 37t-59 17q-49 0 -49 -63v-15h-338z" />
<glyph unicode="&#x2000;" horiz-adv-x="979" />
<glyph unicode="&#x2001;" horiz-adv-x="1958" />
<glyph unicode="&#x2002;" horiz-adv-x="979" />
<glyph unicode="&#x2003;" horiz-adv-x="1958" />
<glyph unicode="&#x2004;" horiz-adv-x="652" />
<glyph unicode="&#x2005;" horiz-adv-x="489" />
<glyph unicode="&#x2006;" horiz-adv-x="326" />
<glyph unicode="&#x2007;" horiz-adv-x="326" />
<glyph unicode="&#x2008;" horiz-adv-x="244" />
<glyph unicode="&#x2009;" horiz-adv-x="391" />
<glyph unicode="&#x200a;" horiz-adv-x="108" />
<glyph unicode="&#x2010;" d="M498 565v406h1024v-406h-1024z" />
<glyph unicode="&#x2011;" d="M498 565v406h1024v-406h-1024z" />
<glyph unicode="&#x2012;" d="M498 565v406h1024v-406h-1024z" />
<glyph unicode="&#x2013;" d="M225 565v406h1569v-406h-1569z" />
<glyph unicode="&#x2014;" d="M20 565v221h1979v-221h-1979z" />
<glyph unicode="&#x2018;" d="M778 1063l170 473h254v-473h-424z" />
<glyph unicode="&#x2019;" d="M817 1063v473h424l-170 -473h-254z" />
<glyph unicode="&#x201a;" d="M864 -57v473h424l-170 -473h-254z" />
<glyph unicode="&#x201c;" d="M543 1063l170 473h254v-473h-424zM1014 1063l170 473h254v-473h-424z" />
<glyph unicode="&#x201d;" d="M582 1063v473h424l-170 -473h-254zM1053 1063v473h424l-170 -473h-254z" />
<glyph unicode="&#x201e;" d="M596 -57v473h424l-170 -473h-254zM1067 -57v473h424l-170 -473h-254z" />
<glyph unicode="&#x2022;" d="M541 684v168q0 160 90.5 229.5t269.5 69.5h219q179 0 270 -69.5t91 -229.5v-168q0 -159 -91 -229t-270 -70h-219q-179 0 -269.5 70t-90.5 229z" />
<glyph unicode="&#x2026;" d="M51 252q0 117 83 200t200 83t199.5 -83t82.5 -200t-82.5 -200t-199.5 -83t-200 83t-83 200zM727 252q0 117 83 200t200 83t199.5 -83t82.5 -200t-82.5 -200t-199.5 -83t-200 83t-83 200zM1405 252q0 117 83 200t200 83t199.5 -83t82.5 -200t-82.5 -200t-199.5 -83 t-200 83t-83 200z" />
<glyph unicode="&#x202f;" horiz-adv-x="391" />
<glyph unicode="&#x2039;" d="M778 666l170 475h254v-948h-254z" />
<glyph unicode="&#x203a;" d="M817 193v948h254l170 -475l-170 -473h-254z" />
<glyph unicode="&#x205f;" horiz-adv-x="489" />
<glyph unicode="&#x20ac;" d="M352 494v229h185v92h-185v229h191q30 260 209.5 376t507.5 116h405v-446h-405q-220 0 -220 -154v-336q0 -154 220 -154h405v-446h-405q-218 0 -366.5 47t-240 158t-110.5 289h-191z" />
<glyph unicode="&#x2122;" d="M20 1219v317h814v-317h-228v-451h-360v451h-226zM893 768v768h356l172 -201l172 201h357v-768h-357v348l-172 -201l-172 201v-348h-356z" />
<glyph unicode="&#x25fc;" horiz-adv-x="1331" d="M0 0v1331h1331v-1331h-1331z" />
</font>
</defs>
</svg>
